<svg width="11" height="10" viewBox="0 0 11 10" fill="none" xmlns="http://www.w3.org/2000/svg">
<path fill-rule="evenodd" clip-rule="evenodd" d="M5.13986 0.200309C5.20195 0.263645 5.2512 0.338882 5.28481 0.421718C5.31842 0.504555 5.33572 0.593354 5.33572 0.683036C5.33572 0.772718 5.31842 0.861518 5.28481 0.944355C5.2512 1.02719 5.20195 1.10243 5.13986 1.16576L1.61052 4.77391L5.13986 8.38209C5.20184 8.44554 5.25101 8.52082 5.28456 8.60363C5.3181 8.68645 5.33537 8.77518 5.33537 8.86482C5.33537 8.95454 5.3181 9.04327 5.28456 9.12609C5.25101 9.20891 5.20184 9.28418 5.13986 9.34755C5.07788 9.411 5.00429 9.46127 4.92331 9.49555C4.84232 9.52991 4.75552 9.54754 4.66786 9.54754C4.5802 9.54754 4.4934 9.52991 4.41242 9.49555C4.33143 9.46127 4.25784 9.411 4.19586 9.34755L0.195858 5.25664C0.133778 5.19336 0.0845156 5.11809 0.0509067 5.03527C0.0172978 4.95245 0 4.86364 0 4.77391C0 4.68427 0.0172978 4.59545 0.0509067 4.51264C0.0845156 4.42982 0.133778 4.35454 0.195858 4.29118L4.19586 0.200309C4.25779 0.136818 4.33135 0.0864364 4.41235 0.0520637C4.49334 0.017691 4.58017 0 4.66786 0C4.75555 0 4.84237 0.017691 4.92337 0.0520637C5.00436 0.0864364 5.07793 0.136818 5.13986 0.200309Z" fill="white"/>
<path fill-rule="evenodd" clip-rule="evenodd" d="M0.667969 4.77362C0.667969 4.5928 0.738209 4.41934 0.863231 4.29143C0.988262 4.16361 1.15783 4.0918 1.33464 4.0918H10.0013C10.1781 4.0918 10.3476 4.16361 10.4727 4.29143C10.5977 4.41934 10.668 4.5928 10.668 4.77362C10.668 4.95443 10.5977 5.1278 10.4727 5.25571C10.3476 5.38352 10.1781 5.45543 10.0013 5.45543H1.33464C1.15783 5.45543 0.988262 5.38352 0.863231 5.25571C0.738209 5.1278 0.667969 4.95443 0.667969 4.77362Z" fill="white"/>
</svg>
