<svg width="20" height="16" viewBox="0 0 20 16" fill="none" xmlns="http://www.w3.org/2000/svg">
<path d="M0 2C0 1.46957 0.210714 0.960859 0.585786 0.585786C0.960859 0.210714 1.46957 0 2 0H11C11.5304 0 12.0391 0.210714 12.4142 0.585786C12.7893 0.960859 13 1.46957 13 2V4C13 4.26522 12.8946 4.51957 12.7071 4.70711C12.5196 4.89464 12.2652 5 12 5C11.7348 5 11.4804 4.89464 11.2929 4.70711C11.1054 4.51957 11 4.26522 11 4V2H2V14H11V12C11 11.7348 11.1054 11.4804 11.2929 11.2929C11.4804 11.1054 11.7348 11 12 11C12.2652 11 12.5196 11.1054 12.7071 11.2929C12.8946 11.4804 13 11.7348 13 12V14C13 14.5304 12.7893 15.0391 12.4142 15.4142C12.0391 15.7893 11.5304 16 11 16H2C1.46957 16 0.960859 15.7893 0.585786 15.4142C0.210714 15.0391 0 14.5304 0 14V2ZM15.293 4.293C15.4805 4.10553 15.7348 4.00021 16 4.00021C16.2652 4.00021 16.5195 4.10553 16.707 4.293L19.707 7.293C19.8945 7.48053 19.9998 7.73484 19.9998 8C19.9998 8.26516 19.8945 8.51947 19.707 8.707L16.707 11.707C16.5184 11.8892 16.2658 11.99 16.0036 11.9877C15.7414 11.9854 15.4906 11.8802 15.3052 11.6948C15.1198 11.5094 15.0146 11.2586 15.0123 10.9964C15.01 10.7342 15.1108 10.4816 15.293 10.293L16.586 9H7C6.73478 9 6.48043 8.89464 6.29289 8.70711C6.10536 8.51957 6 8.26522 6 8C6 7.73478 6.10536 7.48043 6.29289 7.29289C6.48043 7.10536 6.73478 7 7 7H16.586L15.293 5.707C15.1055 5.51947 15.0002 5.26516 15.0002 5C15.0002 4.73484 15.1055 4.48053 15.293 4.293Z" fill="#E5E5E5"/>
</svg>
